<svg id="visual" viewBox="0 0 900 600" width="900" height="600" xmlns="http://www.w3.org/2000/svg" xmlns:xlink="http://www.w3.org/1999/xlink" version="1.1"><path d="M0 37L13.7 38C27.3 39 54.7 41 82 51C109.3 61 136.7 79 163.8 82C191 85 218 73 245.2 70C272.3 67 299.7 73 327 79C354.3 85 381.7 91 409 94C436.3 97 463.7 97 491 97C518.3 97 545.7 97 573 93C600.3 89 627.7 81 654.8 74C682 67 709 61 736.2 66C763.3 71 790.7 87 818 95C845.3 103 872.7 103 886.3 103L900 103L900 0L886.3 0C872.7 0 845.3 0 818 0C790.7 0 763.3 0 736.2 0C709 0 682 0 654.8 0C627.7 0 600.3 0 573 0C545.7 0 518.3 0 491 0C463.7 0 436.3 0 409 0C381.7 0 354.3 0 327 0C299.7 0 272.3 0 245.2 0C218 0 191 0 163.8 0C136.7 0 109.3 0 82 0C54.7 0 27.3 0 13.7 0L0 0Z" fill="#164a8a"></path><path d="M0 169L13.7 176C27.3 183 54.7 197 82 204C109.3 211 136.7 211 163.8 213C191 215 218 219 245.2 242C272.3 265 299.7 307 327 320C354.3 333 381.7 317 409 299C436.3 281 463.7 261 491 261C518.3 261 545.7 281 573 294C600.3 307 627.7 313 654.8 301C682 289 709 259 736.2 245C763.3 231 790.7 233 818 231C845.3 229 872.7 223 886.3 220L900 217L900 101L886.3 101C872.7 101 845.3 101 818 93C790.7 85 763.3 69 736.2 64C709 59 682 65 654.8 72C627.7 79 600.3 87 573 91C545.7 95 518.3 95 491 95C463.7 95 436.3 95 409 92C381.7 89 354.3 83 327 77C299.7 71 272.3 65 245.2 68C218 71 191 83 163.8 80C136.7 77 109.3 59 82 49C54.7 39 27.3 37 13.7 36L0 35Z" fill="#0a396f"></path><path d="M0 289L13.7 287C27.3 285 54.7 281 82 286C109.3 291 136.7 305 163.8 311C191 317 218 315 245.2 329C272.3 343 299.7 373 327 382C354.3 391 381.7 379 409 370C436.3 361 463.7 355 491 360C518.3 365 545.7 381 573 391C600.3 401 627.7 405 654.8 390C682 375 709 341 736.2 321C763.3 301 790.7 295 818 299C845.3 303 872.7 317 886.3 324L900 331L900 215L886.3 218C872.7 221 845.3 227 818 229C790.7 231 763.3 229 736.2 243C709 257 682 287 654.8 299C627.7 311 600.3 305 573 292C545.7 279 518.3 259 491 259C463.7 259 436.3 279 409 297C381.7 315 354.3 331 327 318C299.7 305 272.3 263 245.2 240C218 217 191 213 163.8 211C136.7 209 109.3 209 82 202C54.7 195 27.3 181 13.7 174L0 167Z" fill="#002855"></path><path d="M0 379L13.7 376C27.3 373 54.7 367 82 373C109.3 379 136.7 397 163.8 405C191 413 218 411 245.2 424C272.3 437 299.7 465 327 481C354.3 497 381.7 501 409 489C436.3 477 463.7 449 491 445C518.3 441 545.7 461 573 469C600.3 477 627.7 473 654.8 472C682 471 709 473 736.2 466C763.3 459 790.7 443 818 439C845.3 435 872.7 443 886.3 447L900 451L900 329L886.3 322C872.7 315 845.3 301 818 297C790.7 293 763.3 299 736.2 319C709 339 682 373 654.8 388C627.7 403 600.3 399 573 389C545.7 379 518.3 363 491 358C463.7 353 436.3 359 409 368C381.7 377 354.3 389 327 380C299.7 371 272.3 341 245.2 327C218 313 191 315 163.8 309C136.7 303 109.3 289 82 284C54.7 279 27.3 283 13.7 285L0 287Z" fill="#00244a"></path><path d="M0 601L13.7 601C27.3 601 54.7 601 82 601C109.3 601 136.7 601 163.8 601C191 601 218 601 245.2 601C272.3 601 299.7 601 327 601C354.3 601 381.7 601 409 601C436.3 601 463.7 601 491 601C518.3 601 545.7 601 573 601C600.3 601 627.7 601 654.8 601C682 601 709 601 736.2 601C763.3 601 790.7 601 818 601C845.3 601 872.7 601 886.3 601L900 601L900 449L886.3 445C872.7 441 845.3 433 818 437C790.7 441 763.3 457 736.2 464C709 471 682 469 654.8 470C627.7 471 600.3 475 573 467C545.7 459 518.3 439 491 443C463.7 447 436.3 475 409 487C381.7 499 354.3 495 327 479C299.7 463 272.3 435 245.2 422C218 409 191 411 163.8 403C136.7 395 109.3 377 82 371C54.7 365 27.3 371 13.7 374L0 377Z" fill="#00203f"></path></svg>