<svg id="visual" viewBox="0 0 960 540" width="960" height="540" xmlns="http://www.w3.org/2000/svg" xmlns:xlink="http://www.w3.org/1999/xlink" version="1.1"><rect x="0" y="0" width="960" height="540" fill="#001220"></rect><path d="M0 369L22.8 370.2C45.7 371.3 91.3 373.7 137 367.8C182.7 362 228.3 348 274 346.5C319.7 345 365.3 356 411.2 365.5C457 375 503 383 548.8 387.7C594.7 392.3 640.3 393.7 686 381C731.7 368.3 777.3 341.7 823 340.8C868.7 340 914.3 365 937.2 377.5L960 390L960 541L937.2 541C914.3 541 868.7 541 823 541C777.3 541 731.7 541 686 541C640.3 541 594.7 541 548.8 541C503 541 457 541 411.2 541C365.3 541 319.7 541 274 541C228.3 541 182.7 541 137 541C91.3 541 45.7 541 22.8 541L0 541Z" fill="#4b5ef4"></path><path d="M0 429L22.8 422.8C45.7 416.7 91.3 404.3 137 400.3C182.7 396.3 228.3 400.7 274 407.3C319.7 414 365.3 423 411.2 416.8C457 410.7 503 389.3 548.8 381C594.7 372.7 640.3 377.3 686 382.2C731.7 387 777.3 392 823 389.2C868.7 386.3 914.3 375.7 937.2 370.3L960 365L960 541L937.2 541C914.3 541 868.7 541 823 541C777.3 541 731.7 541 686 541C640.3 541 594.7 541 548.8 541C503 541 457 541 411.2 541C365.3 541 319.7 541 274 541C228.3 541 182.7 541 137 541C91.3 541 45.7 541 22.8 541L0 541Z" fill="#8884f8"></path><path d="M0 425L22.8 425.3C45.7 425.7 91.3 426.3 137 429.5C182.7 432.7 228.3 438.3 274 443.7C319.7 449 365.3 454 411.2 449C457 444 503 429 548.8 426.2C594.7 423.3 640.3 432.7 686 437.5C731.7 442.3 777.3 442.7 823 437.2C868.7 431.7 914.3 420.3 937.2 414.7L960 409L960 541L937.2 541C914.3 541 868.7 541 823 541C777.3 541 731.7 541 686 541C640.3 541 594.7 541 548.8 541C503 541 457 541 411.2 541C365.3 541 319.7 541 274 541C228.3 541 182.7 541 137 541C91.3 541 45.7 541 22.8 541L0 541Z" fill="#b4abfb"></path><path d="M0 464L22.8 459C45.7 454 91.3 444 137 442.8C182.7 441.7 228.3 449.3 274 451.3C319.7 453.3 365.3 449.7 411.2 453.5C457 457.3 503 468.7 548.8 470.5C594.7 472.3 640.3 464.7 686 463.7C731.7 462.7 777.3 468.3 823 467C868.7 465.7 914.3 457.3 937.2 453.2L960 449L960 541L937.2 541C914.3 541 868.7 541 823 541C777.3 541 731.7 541 686 541C640.3 541 594.7 541 548.8 541C503 541 457 541 411.2 541C365.3 541 319.7 541 274 541C228.3 541 182.7 541 137 541C91.3 541 45.7 541 22.8 541L0 541Z" fill="#dbd4fe"></path><path d="M0 472L22.8 477.5C45.7 483 91.3 494 137 499C182.7 504 228.3 503 274 497.5C319.7 492 365.3 482 411.2 479.2C457 476.3 503 480.7 548.8 486.2C594.7 491.7 640.3 498.3 686 497.7C731.7 497 777.3 489 823 484.5C868.7 480 914.3 479 937.2 478.5L960 478L960 541L937.2 541C914.3 541 868.7 541 823 541C777.3 541 731.7 541 686 541C640.3 541 594.7 541 548.8 541C503 541 457 541 411.2 541C365.3 541 319.7 541 274 541C228.3 541 182.7 541 137 541C91.3 541 45.7 541 22.8 541L0 541Z" fill="#ffffff"></path></svg>