<svg id="visual" viewBox="0 0 900 600" width="900" height="600" xmlns="http://www.w3.org/2000/svg" xmlns:xlink="http://www.w3.org/1999/xlink" version="1.1"><rect x="0" y="0" width="900" height="600" fill="#001233"></rect><path d="M0 410L129 333L257 331L386 321L514 361L643 317L771 377L900 334L900 601L771 601L643 601L514 601L386 601L257 601L129 601L0 601Z" fill="#002855"></path><path d="M0 356L129 442L257 404L386 412L514 391L643 378L771 383L900 355L900 601L771 601L643 601L514 601L386 601L257 601L129 601L0 601Z" fill="#003770"></path><path d="M0 474L129 420L257 464L386 417L514 406L643 477L771 430L900 423L900 601L771 601L643 601L514 601L386 601L257 601L129 601L0 601Z" fill="#00468c"></path><path d="M0 477L129 528L257 504L386 471L514 486L643 492L771 496L900 524L900 601L771 601L643 601L514 601L386 601L257 601L129 601L0 601Z" fill="#0156aa"></path><path d="M0 520L129 526L257 557L386 509L514 519L643 559L771 530L900 557L900 601L771 601L643 601L514 601L386 601L257 601L129 601L0 601Z" fill="#0466c8"></path></svg>