<svg id="visual" viewBox="0 0 900 600" width="900" height="600" xmlns="http://www.w3.org/2000/svg" xmlns:xlink="http://www.w3.org/1999/xlink" version="1.1"><path d="M0 79L13.7 80C27.3 81 54.7 83 82 78C109.3 73 136.7 61 163.8 56C191 51 218 53 245.2 53C272.3 53 299.7 51 327 55C354.3 59 381.7 69 409 78C436.3 87 463.7 95 491 93C518.3 91 545.7 79 573 75C600.3 71 627.7 75 654.8 71C682 67 709 55 736.2 52C763.3 49 790.7 55 818 63C845.3 71 872.7 81 886.3 86L900 91L900 0L886.3 0C872.7 0 845.3 0 818 0C790.7 0 763.3 0 736.2 0C709 0 682 0 654.8 0C627.7 0 600.3 0 573 0C545.7 0 518.3 0 491 0C463.7 0 436.3 0 409 0C381.7 0 354.3 0 327 0C299.7 0 272.3 0 245.2 0C218 0 191 0 163.8 0C136.7 0 109.3 0 82 0C54.7 0 27.3 0 13.7 0L0 0Z" fill="#4d8cdc"></path><path d="M0 325L13.7 331C27.3 337 54.7 349 82 325C109.3 301 136.7 241 163.8 211C191 181 218 181 245.2 177C272.3 173 299.7 165 327 191C354.3 217 381.7 277 409 290C436.3 303 463.7 269 491 256C518.3 243 545.7 251 573 249C600.3 247 627.7 235 654.8 221C682 207 709 191 736.2 182C763.3 173 790.7 171 818 188C845.3 205 872.7 241 886.3 259L900 277L900 89L886.3 84C872.7 79 845.3 69 818 61C790.7 53 763.3 47 736.2 50C709 53 682 65 654.8 69C627.7 73 600.3 69 573 73C545.7 77 518.3 89 491 91C463.7 93 436.3 85 409 76C381.7 67 354.3 57 327 53C299.7 49 272.3 51 245.2 51C218 51 191 49 163.8 54C136.7 59 109.3 71 82 76C54.7 81 27.3 79 13.7 78L0 77Z" fill="#3179d2"></path><path d="M0 415L13.7 427C27.3 439 54.7 463 82 455C109.3 447 136.7 407 163.8 389C191 371 218 375 245.2 370C272.3 365 299.7 351 327 367C354.3 383 381.7 429 409 442C436.3 455 463.7 435 491 425C518.3 415 545.7 415 573 427C600.3 439 627.7 463 654.8 453C682 443 709 399 736.2 390C763.3 381 790.7 407 818 414C845.3 421 872.7 409 886.3 403L900 397L900 275L886.3 257C872.7 239 845.3 203 818 186C790.7 169 763.3 171 736.2 180C709 189 682 205 654.8 219C627.7 233 600.3 245 573 247C545.7 249 518.3 241 491 254C463.7 267 436.3 301 409 288C381.7 275 354.3 215 327 189C299.7 163 272.3 171 245.2 175C218 179 191 179 163.8 209C136.7 239 109.3 299 82 323C54.7 347 27.3 335 13.7 329L0 323Z" fill="#0466c8"></path><path d="M0 523L13.7 527C27.3 531 54.7 539 82 534C109.3 529 136.7 511 163.8 495C191 479 218 465 245.2 461C272.3 457 299.7 463 327 477C354.3 491 381.7 513 409 516C436.3 519 463.7 503 491 504C518.3 505 545.7 523 573 530C600.3 537 627.7 533 654.8 523C682 513 709 497 736.2 495C763.3 493 790.7 505 818 504C845.3 503 872.7 489 886.3 482L900 475L900 395L886.3 401C872.7 407 845.3 419 818 412C790.7 405 763.3 379 736.2 388C709 397 682 441 654.8 451C627.7 461 600.3 437 573 425C545.7 413 518.3 413 491 423C463.7 433 436.3 453 409 440C381.7 427 354.3 381 327 365C299.7 349 272.3 363 245.2 368C218 373 191 369 163.8 387C136.7 405 109.3 445 82 453C54.7 461 27.3 437 13.7 425L0 413Z" fill="#0058ad"></path><path d="M0 601L13.7 601C27.3 601 54.7 601 82 601C109.3 601 136.7 601 163.8 601C191 601 218 601 245.2 601C272.3 601 299.7 601 327 601C354.3 601 381.7 601 409 601C436.3 601 463.7 601 491 601C518.3 601 545.7 601 573 601C600.3 601 627.7 601 654.8 601C682 601 709 601 736.2 601C763.3 601 790.7 601 818 601C845.3 601 872.7 601 886.3 601L900 601L900 473L886.3 480C872.7 487 845.3 501 818 502C790.7 503 763.3 491 736.2 493C709 495 682 511 654.8 521C627.7 531 600.3 535 573 528C545.7 521 518.3 503 491 502C463.7 501 436.3 517 409 514C381.7 511 354.3 489 327 475C299.7 461 272.3 455 245.2 459C218 463 191 477 163.8 493C136.7 509 109.3 527 82 532C54.7 537 27.3 529 13.7 525L0 521Z" fill="#004b93"></path></svg>